<?xml version="1.0" encoding="utf-8"?>
<!-- Generator: Adobe Illustrator 25.4.1, SVG Export Plug-In . SVG Version: 6.00 Build 0)  -->
<svg version="1.1" id="Ebene_1" xmlns="http://www.w3.org/2000/svg" xmlns:xlink="http://www.w3.org/1999/xlink" x="0px" y="0px"
	 viewBox="0 0 260 100" style="enable-background:new 0 0 260 100;" xml:space="preserve">
<style type="text/css">
	.st0{fill:#FFFFFF;}
	.st1{fill:#001C39;}
	.st2{clip-path:url(#SVGID_00000072279947175690641890000016356389681305168780_);fill:#0077B5;}
	.st3{fill:#6F6F6E;}
	.st4{fill:#0078BA;}
	.st5{fill:none;stroke:#0078BA;stroke-width:0.216;stroke-miterlimit:3.864;}
	.st6{fill-rule:evenodd;clip-rule:evenodd;fill:#0078BA;}
	.st7{fill:none;stroke:#0078BA;stroke-width:0.55;stroke-miterlimit:3.864;}
</style>
<g>
	<rect y="0" class="st0" width="251" height="100"/>
	<path class="st1" d="M251.3,0c-9.2,14.7-30.9,52.8-41,100H260V0H251.3z"/>
	<g>
		<defs>
			<rect id="SVGID_1_" x="198" y="0" width="56" height="100"/>
		</defs>
		<clipPath id="SVGID_00000011749817276715179880000011354899179628455357_">
			<use xlink:href="#SVGID_1_"  style="overflow:visible;"/>
		</clipPath>
		<path style="clip-path:url(#SVGID_00000011749817276715179880000011354899179628455357_);fill:#0077B5;" d="M205.8,109
			C217.1,45.1,251.4-4.5,252.7-6.4h3.7c-1.4,2-35.7,51.6-46.9,115.4H205.8L205.8,109z"/>
	</g>
	<g>
		<path class="st3" d="M15.1,70.3c-0.5,0.5-1.1,0.8-2,0.8s-1.5-0.3-2-0.8c-0.8-0.8-0.8-1.6-0.8-3c0-1.4,0-2.3,0.8-3
			c0.5-0.5,1.2-0.8,2-0.8s1.5,0.3,2,0.8c0.8,0.8,0.8,1.6,0.8,3C15.9,68.7,15.8,69.5,15.1,70.3z M14,65.1c-0.2-0.2-0.5-0.4-0.9-0.4
			c-0.4,0-0.7,0.2-1,0.4c-0.3,0.3-0.4,0.7-0.4,2.1c0,1.4,0.1,1.8,0.4,2.1c0.2,0.2,0.5,0.4,1,0.4c0.4,0,0.7-0.2,0.9-0.4
			c0.3-0.3,0.4-0.7,0.4-2.1C14.4,65.8,14.3,65.4,14,65.1z"/>
		<path class="st3" d="M20.1,71.1c-1.5,0-2.8-1-2.8-2.6v-4.9h1.5v4.9c0,0.9,0.5,1.4,1.3,1.4c0.8,0,1.3-0.5,1.3-1.4v-4.9h1.5v4.9
			C22.9,70,21.7,71.1,20.1,71.1z"/>
		<path class="st3" d="M28.6,71l-1.5-3h-1.1v3h-1.5v-7.5h3c1.5,0,2.4,1,2.4,2.3c0,1.1-0.6,1.7-1.4,2l1.7,3.2H28.6z M27.5,64.8h-1.4
			v2h1.4c0.6,0,1.1-0.4,1.1-1C28.6,65.2,28.1,64.8,27.5,64.8z"/>
		<path class="st3" d="M39.1,69.9l0.6,0.6l-0.8,0.8l-0.7-0.7c-0.4,0.3-0.9,0.4-1.5,0.4c-0.9,0-1.5-0.3-2-0.8c-0.8-0.8-0.8-1.6-0.8-3
			c0-1.4,0-2.3,0.8-3c0.5-0.5,1.2-0.8,2-0.8c0.9,0,1.5,0.3,2,0.8c0.8,0.8,0.8,1.6,0.8,3C39.5,68.5,39.5,69.2,39.1,69.9z M37.7,65.1
			c-0.2-0.2-0.5-0.4-0.9-0.4c-0.4,0-0.7,0.2-1,0.4c-0.3,0.3-0.4,0.7-0.4,2.1c0,1.4,0.1,1.8,0.4,2.1c0.2,0.2,0.5,0.4,1,0.4
			c0.2,0,0.3,0,0.5-0.1L36.6,69l0.8-0.8l0.6,0.6c0.1-0.3,0.1-0.8,0.1-1.5C38.1,65.8,38,65.4,37.7,65.1z"/>
		<path class="st3" d="M43.8,71.1c-1.5,0-2.8-1-2.8-2.6v-4.9h1.5v4.9c0,0.9,0.5,1.4,1.3,1.4c0.8,0,1.3-0.5,1.3-1.4v-4.9h1.5v4.9
			C46.5,70,45.3,71.1,43.8,71.1z"/>
		<path class="st3" d="M52.6,71l-0.4-1.3h-2.7L49,71h-1.5l2.7-7.5h1.2l2.7,7.5H52.6z M50.8,65.7l-1,2.7h1.9L50.8,65.7z"/>
		<path class="st3" d="M55.1,71v-7.5h1.5v6.2H60V71H55.1z"/>
		<path class="st3" d="M61.3,71v-7.5h1.5V71H61.3z"/>
		<path class="st3" d="M67.5,64.8V71h-1.5v-6.2h-2v-1.3h5.4v1.3H67.5z"/>
		<path class="st3" d="M73.8,67.9V71h-1.5v-3.1l-2.3-4.4h1.6l1.4,3l1.4-3H76L73.8,67.9z"/>
		<path class="st3" d="M79.6,71v-7.5h1.5V71H79.6z"/>
		<path class="st3" d="M85,71.1c-1.1,0-2-0.2-2.7-1l1-1c0.5,0.5,1.1,0.6,1.8,0.6c0.9,0,1.3-0.3,1.3-0.9c0-0.3-0.1-0.5-0.2-0.6
			C86,68,85.9,68,85.5,67.9l-0.9-0.1c-0.7-0.1-1.1-0.3-1.5-0.6c-0.4-0.3-0.5-0.8-0.5-1.5c0-1.3,1-2.3,2.6-2.3c1,0,1.8,0.3,2.4,0.9
			l-0.9,0.9c-0.5-0.5-1-0.5-1.5-0.5c-0.8,0-1.2,0.4-1.2,1c0,0.2,0.1,0.4,0.2,0.5c0.1,0.1,0.4,0.2,0.7,0.3l0.9,0.1
			c0.7,0.1,1.1,0.3,1.4,0.6c0.4,0.4,0.6,0.9,0.6,1.6C87.8,70.2,86.6,71.1,85,71.1z"/>
		<path class="st3" d="M94.7,67.9V71h-1.5v-3.1L91,63.5h1.6l1.4,3l1.4-3H97L94.7,67.9z"/>
		<path class="st3" d="M102.5,70.3c-0.5,0.5-1.1,0.8-2,0.8c-0.9,0-1.5-0.3-2-0.8c-0.8-0.8-0.8-1.6-0.8-3c0-1.4,0-2.3,0.8-3
			c0.5-0.5,1.2-0.8,2-0.8c0.9,0,1.5,0.3,2,0.8c0.8,0.8,0.8,1.6,0.8,3C103.2,68.7,103.2,69.5,102.5,70.3z M101.4,65.1
			c-0.2-0.2-0.5-0.4-0.9-0.4c-0.4,0-0.7,0.2-1,0.4c-0.3,0.3-0.4,0.7-0.4,2.1c0,1.4,0.1,1.8,0.4,2.1c0.2,0.2,0.5,0.4,1,0.4
			c0.4,0,0.7-0.2,0.9-0.4c0.3-0.3,0.4-0.7,0.4-2.1C101.8,65.8,101.7,65.4,101.4,65.1z"/>
		<path class="st3" d="M107.5,71.1c-1.5,0-2.8-1-2.8-2.6v-4.9h1.5v4.9c0,0.9,0.5,1.4,1.3,1.4s1.3-0.5,1.3-1.4v-4.9h1.5v4.9
			C110.3,70,109,71.1,107.5,71.1z"/>
		<path class="st3" d="M116,71l-1.5-3h-1.1v3H112v-7.5h3c1.5,0,2.4,1,2.4,2.3c0,1.1-0.6,1.7-1.4,2l1.7,3.2H116z M114.9,64.8h-1.4v2
			h1.4c0.6,0,1.1-0.4,1.1-1C115.9,65.2,115.5,64.8,114.9,64.8z"/>
		<path class="st3" d="M123.7,71.1c-1.1,0-2-0.2-2.7-1l1-1c0.5,0.5,1.1,0.6,1.8,0.6c0.9,0,1.3-0.3,1.3-0.9c0-0.3-0.1-0.5-0.2-0.6
			c-0.1-0.1-0.3-0.2-0.7-0.3l-0.9-0.1c-0.7-0.1-1.1-0.3-1.5-0.6c-0.4-0.3-0.5-0.8-0.5-1.5c0-1.3,1-2.3,2.6-2.3c1,0,1.8,0.3,2.4,0.9
			l-0.9,0.9c-0.5-0.5-1-0.5-1.5-0.5c-0.8,0-1.2,0.4-1.2,1c0,0.2,0.1,0.4,0.2,0.5c0.1,0.1,0.4,0.2,0.7,0.3l0.9,0.1
			c0.7,0.1,1.1,0.3,1.4,0.6c0.4,0.4,0.6,0.9,0.6,1.6C126.4,70.2,125.2,71.1,123.7,71.1z"/>
		<path class="st3" d="M130.6,71.1c-1.5,0-2.8-1-2.8-2.6v-4.9h1.5v4.9c0,0.9,0.5,1.4,1.3,1.4s1.3-0.5,1.3-1.4v-4.9h1.5v4.9
			C133.4,70,132.1,71.1,130.6,71.1z"/>
		<path class="st3" d="M137.6,71.1c-0.9,0-1.5-0.3-2-0.8c-0.8-0.8-0.8-1.6-0.8-3c0-1.4,0-2.3,0.8-3c0.5-0.5,1.2-0.8,2-0.8
			c1.4,0,2.5,0.8,2.8,2.4h-1.5c-0.1-0.6-0.5-1.1-1.3-1.1c-0.4,0-0.7,0.1-0.9,0.4c-0.3,0.3-0.4,0.7-0.4,2.1c0,1.4,0.1,1.8,0.4,2.1
			c0.2,0.2,0.5,0.4,0.9,0.4c0.7,0,1.1-0.5,1.3-1.1h1.5C140.1,70.3,139,71.1,137.6,71.1z"/>
		<path class="st3" d="M144.2,71.1c-0.9,0-1.5-0.3-2-0.8c-0.8-0.8-0.8-1.6-0.8-3c0-1.4,0-2.3,0.8-3c0.5-0.5,1.2-0.8,2-0.8
			c1.4,0,2.5,0.8,2.8,2.4h-1.5c-0.1-0.6-0.5-1.1-1.3-1.1c-0.4,0-0.7,0.1-0.9,0.4c-0.3,0.3-0.4,0.7-0.4,2.1c0,1.4,0.1,1.8,0.4,2.1
			c0.2,0.2,0.5,0.4,0.9,0.4c0.7,0,1.1-0.5,1.3-1.1h1.5C146.7,70.3,145.6,71.1,144.2,71.1z"/>
		<path class="st3" d="M148.3,71v-7.5h5v1.3h-3.5v1.8h3v1.3h-3v1.8h3.5V71H148.3z"/>
		<path class="st3" d="M156.9,71.1c-1.1,0-2-0.2-2.7-1l1-1c0.5,0.5,1.1,0.6,1.8,0.6c0.9,0,1.3-0.3,1.3-0.9c0-0.3-0.1-0.5-0.2-0.6
			c-0.1-0.1-0.3-0.2-0.7-0.3l-0.9-0.1c-0.7-0.1-1.1-0.3-1.5-0.6c-0.4-0.3-0.5-0.8-0.5-1.5c0-1.3,1-2.3,2.6-2.3c1,0,1.8,0.3,2.4,0.9
			l-0.9,0.9c-0.5-0.5-1-0.5-1.5-0.5c-0.8,0-1.2,0.4-1.2,1c0,0.2,0.1,0.4,0.2,0.5c0.1,0.1,0.4,0.2,0.7,0.3l0.9,0.1
			c0.7,0.1,1.1,0.3,1.4,0.6c0.4,0.4,0.6,0.9,0.6,1.6C159.7,70.2,158.5,71.1,156.9,71.1z"/>
		<path class="st3" d="M163.2,71.1c-1.1,0-2-0.2-2.7-1l1-1c0.5,0.5,1.1,0.6,1.8,0.6c0.9,0,1.3-0.3,1.3-0.9c0-0.3-0.1-0.5-0.2-0.6
			c-0.1-0.1-0.3-0.2-0.7-0.3l-0.9-0.1c-0.7-0.1-1.1-0.3-1.5-0.6c-0.4-0.3-0.5-0.8-0.5-1.5c0-1.3,1-2.3,2.6-2.3c1,0,1.8,0.3,2.4,0.9
			l-0.9,0.9c-0.5-0.5-1-0.5-1.5-0.5c-0.8,0-1.2,0.4-1.2,1c0,0.2,0.1,0.4,0.2,0.5c0.1,0.1,0.4,0.2,0.7,0.3l0.9,0.1
			c0.7,0.1,1.1,0.3,1.4,0.6c0.4,0.4,0.6,0.9,0.6,1.6C166,70.2,164.8,71.1,163.2,71.1z"/>
	</g>
	<polygon class="st4" points="55.2,20.2 64.4,20.2 64.4,26.2 68.5,20.2 79.1,20.2 72.2,29 79.1,37.5 68.6,37.5 64.4,32.3 64.4,37.5 
		55.2,37.5 	"/>
	<polygon class="st5" points="55.2,20.2 64.4,20.2 64.4,26.2 68.5,20.2 79.1,20.2 72.2,29 79.1,37.5 68.6,37.5 64.4,32.3 64.4,37.5 
		55.2,37.5 	"/>
	<polygon class="st4" points="88.8,20.2 88.8,31.3 96.6,31.3 96.6,37.5 79.9,37.5 79.9,20.2 	"/>
	<polygon class="st5" points="88.8,20.2 88.8,31.3 96.6,31.3 96.6,37.5 79.9,37.5 79.9,20.2 	"/>
	<polygon class="st4" points="79.9,39.6 79.9,56.7 88.5,56.7 88.5,49.3 94.7,56.7 102.5,56.7 102.5,39.6 94.2,39.6 94.2,46.5 
		89,39.6 	"/>
	<polygon class="st5" points="79.9,39.6 79.9,56.7 88.5,56.7 88.5,49.3 94.7,56.7 102.5,56.7 102.5,39.6 94.2,39.6 94.2,46.5 
		89,39.6 	"/>
	<path class="st4" d="M55.2,39.6h9.2v10.6c0,0-0.4,2,2,2c2.4,0,1.7-2,1.7-2V39.6H77v11.7c0,0,1.1,5.8-10.3,5.8s-11.4-5.8-11.4-5.8
		V39.6z"/>
	<path class="st5" d="M55.2,39.6h9.2v10.6c0,0-0.4,2,2,2c2.4,0,1.7-2,1.7-2V39.6H77v11.7c0,0,1.1,5.8-10.3,5.8s-11.4-5.8-11.4-5.8
		V39.6z"/>
	<path class="st4" d="M164.8,20.2c0,0-4.7-0.7-8.7-0.7c-4,0.1-10.8-0.2-11.3,6.5c-0.4,6.7,10.2,5.8,11,5.8c0.8,0.1,0.7,1-0.4,1.1
		c-1.1,0.1-8.8-0.1-9.9-0.7c-0.1-0.1-0.1,5.2-0.1,5.2s6.2,0.6,9.1,0.5c2.9-0.1,10.8-0.2,10.7-6.2c-0.1-6-5.1-5.1-10.4-5.4
		c-0.9-0.1-0.5-1-0.2-1.2c0.8-0.3,8.6-0.3,10.1,0.5C164.9,25.7,164.8,20.2,164.8,20.2z"/>
	<path class="st5" d="M164.8,20.2c0,0-4.7-0.7-8.7-0.7c-4,0.1-10.8-0.2-11.3,6.5c-0.4,6.7,10.2,5.8,11,5.8c0.8,0.1,0.7,1-0.4,1.1
		c-1.1,0.1-8.8-0.1-9.9-0.7c-0.1-0.1-0.1,5.2-0.1,5.2s6.2,0.6,9.1,0.5c2.9-0.1,10.8-0.2,10.7-6.2c-0.1-6-5.1-5.1-10.4-5.4
		c-0.9-0.1-0.5-1-0.2-1.2c0.8-0.3,8.6-0.3,10.1,0.5C164.9,25.7,164.8,20.2,164.8,20.2z"/>
	<rect x="105.5" y="39.6" class="st4" width="9.2" height="17.1"/>
	<rect x="105.5" y="39.6" class="st5" width="9.2" height="17.1"/>
	<polygon class="st4" points="143.3,39.6 143.3,56.7 151.9,56.7 151.9,49.3 158.1,56.7 165.9,56.7 165.9,39.6 157.6,39.6 
		157.6,46.5 152.4,39.6 	"/>
	<polygon class="st5" points="143.3,39.6 143.3,56.7 151.9,56.7 151.9,49.3 158.1,56.7 165.9,56.7 165.9,39.6 157.6,39.6 
		157.6,46.5 152.4,39.6 	"/>
	<path class="st4" d="M122.1,20.1h9.2v10.6c0,0-0.4,2,2,2c2.4,0,1.7-2,1.7-2V20.1h8.8v11.7c0,0,1.1,5.8-10.3,5.8
		c-11.4,0-11.4-5.8-11.4-5.8V20.1z"/>
	<path class="st5" d="M122.1,20.1h9.2v10.6c0,0-0.4,2,2,2c2.4,0,1.7-2,1.7-2V20.1h8.8v11.7c0,0,1.1,5.8-10.3,5.8
		c-11.4,0-11.4-5.8-11.4-5.8V20.1z"/>
	<path class="st6" d="M128.5,44.9h1.2c1.3,0,2.4,1.1,2.4,2.4v2.6c0,1.3-1.1,2.4-2.4,2.4h-1.2c-1.3,0-2.4-1.1-2.4-2.4v-2.6
		C126.1,46,127.2,44.9,128.5,44.9 M116.7,48.1c0,0-1.7-9.3,12.6-9.3c14.3,0,11.6,11.6,11.6,11.6s-0.8,7-11.6,7
		C115.4,57.4,116.7,48.1,116.7,48.1z"/>
	<path class="st5" d="M128.5,44.9h1.2c1.3,0,2.4,1.1,2.4,2.4v2.6c0,1.3-1.1,2.4-2.4,2.4h-1.2c-1.3,0-2.4-1.1-2.4-2.4v-2.6
		C126.1,46,127.2,44.9,128.5,44.9z M116.7,48.1c0,0-1.7-9.3,12.6-9.3c14.3,0,11.6,11.6,11.6,11.6s-0.8,7-11.6,7
		C115.4,57.4,116.7,48.1,116.7,48.1z"/>
	<path class="st6" d="M106.8,35.2l-0.7,2.3h-8.9l5.6-17.3H117l5.7,17.3h-9.5l-0.7-2.3L106.8,35.2 M108.3,30.4h2.8l-1.3-4.6
		L108.3,30.4z"/>
	<g>
		<path class="st6" d="M29,32.3v7.9h-7c1,3.2,3.3,6.3,8.3,6.2c5.8-0.1,7.9-3.1,8.5-6.2h-5.1L29,32.3z"/>
		<path class="st6" d="M30.4,18c-11.2,0-20.3,9-20.3,20.2c0,11.2,9.1,20.2,20.3,20.2c11.2,0,20.3-9,20.3-20.2
			C50.7,27.1,41.6,18,30.4,18z M30.4,53.9c-17.8,0-16.1-20.7-16.1-20.7h7l0-11.2H29v7.7l4.5-7.7h8.1l-5,8.7l1.8,2.9
			c-0.1-0.3-0.1-0.4-0.1-0.4h8.1C46.4,33.2,48.9,53.9,30.4,53.9z"/>
	</g>
	<polygon class="st7" points="21.2,22 29,22 29,29.7 33.5,22 41.7,22 36.7,30.7 42.4,40.2 33.7,40.2 29,32.3 29,40.2 21.2,40.2 	"/>
</g>
</svg>
